General
Complete name : Airport (1970)Airport (1976).avi
Format : AVI
Format/Info : Audio Video Interleave
Format profile : OpenDML
File size : 2.00 GiB
Duration : 2h 16mn
Overall bit rate : 2 095 Kbps
Writing application : VirtualDubMod 1.5.10.2 (build 2540/release)
Writing library : VirtualDubMod build 2540/release

Video
ID : 0
Format : MPEG-4 Visual
Format profile : Simple@L3
Format settings, BVOP : Yes
Format settings, QPel : No
Format settings, GMC : No warppoints
Format settings, Matrix : Default (H.263)
Codec ID : XVID
Codec ID/Hint : XviD
Duration : 2h 16mn
Bit rate : 1 501 Kbps
Width : 720 pixels
Height : 304 pixels
Display aspect ratio : 2.35:1
Frame rate : 23.976 fps
Color space : YUV
Chroma subsampling : 4:2:0
Bit depth : 8 bits
Scan type : Progressive
Bits/(Pixel*Frame) : 0.286
Stream size : 1.43 GiB (72%)

Audio #1
ID : 1
Format : AC-3
Format/Info : Audio Coding 3
Mode extension : CM (complete main)
Codec ID : 2000
Duration : 2h 16mn
Bit rate mode : Constant
Bit rate : 192 Kbps
Channel(s) : 2 channels
Channel positions : Front: L R
Sampling rate : 48.0 KHz
Bit depth : 16 bits
Stream size : 188 MiB (9%)
Alignment : Split accross interleaves
Interleave, duration : 42 ms (1.00 video frame)
Interleave, preload duration : 500 ms

Audio #2
ID : 2
Format : AC-3
Format/Info : Audio Coding 3
Mode extension : CM (complete main)
Codec ID : 2000
Duration : 2h 16mn
Bit rate mode : Constant
Bit rate : 384 Kbps
Channel(s) : 6 channels
Channel positions : Front: L C R, Side: L R, LFE
Sampling rate : 48.0 KHz
Bit depth : 16 bits
Stream size : 375 MiB (18%)
Alignment : Split accross interleaves
Interleave, duration : 42 ms (1.00 video frame)
Interleave, preload duration : 500 ms